<svg xmlns="http://www.w3.org/2000/svg" width="1200" height="400" viewBox="0 0 1200 400">
  <defs>
    <linearGradient id="bannerGradient" x1="0%" y1="0%" x2="100%" y2="0%">
      <stop offset="0%" style="stop-color:#0a0a0f;stop-opacity:1" />
      <stop offset="50%" style="stop-color:#111122;stop-opacity:1" />
      <stop offset="100%" style="stop-color:#0a0a0f;stop-opacity:1" />
    </linearGradient>
    <linearGradient id="titleGradient" x1="0%" y1="0%" x2="100%" y2="0%">
      <stop offset="0%" style="stop-color:#00ff9d;stop-opacity:1" />
      <stop offset="50%" style="stop-color:#00b8ff;stop-opacity:1" />
      <stop offset="100%" style="stop-color:#9d00ff;stop-opacity:1" />
    </linearGradient>
    <filter id="bannerGlow" x="-20%" y="-20%" width="140%" height="140%">
      <feGaussianBlur stdDeviation="4" result="blur"/>
      <feMerge>
        <feMergeNode in="blur"/>
        <feMergeNode in="SourceGraphic"/>
      </feMerge>
    </filter>
  </defs>
  
  <!-- Background -->
  <rect width="1200" height="400" fill="url(#bannerGradient)"/>
  
  <!-- Subtle grid pattern -->
  <g opacity="0.1">
    <path d="M0,100 L1200,100 M0,200 L1200,200 M0,300 L1200,300 M100,0 L100,400 M200,0 L200,400 M300,0 L300,400 M400,0 L400,400 M500,0 L500,400 M600,0 L600,400 M700,0 L700,400 M800,0 L800,400 M900,0 L900,400 M1000,0 L1000,400 M1100,0 L1100,400" stroke="#00ff9d" stroke-width="1"/>
  </g>
  
  <!-- Main title -->
  <g filter="url(#bannerGlow)">
    <text x="600" y="180" text-anchor="middle" font-family="monospace" font-size="72" fill="url(#titleGradient)" font-weight="bold">
      OpenClaw Function Buttons
    </text>
  </g>
  
  <!-- Subtitle -->
  <text x="600" y="240" text-anchor="middle" font-family="monospace" font-size="32" fill="#00b8ff">
    One-click desktop buttons for OpenClaw
  </text>
  
  <!-- Feature highlights -->
  <g>
    <!-- Button 1 -->
    <g transform="translate(300, 300)">
      <circle cx="0" cy="0" r="40" fill="#0a0a0f" stroke="#00ff9d" stroke-width="3"/>
      <rect x="-12" y="-12" width="24" height="24" fill="none" stroke="#00ff9d" stroke-width="2" rx="2"/>
      <path d="M0,-20 L4,-16 L-4,-16 Z" fill="#00ff9d"/>
      <path d="M0,20 L4,16 L-4,16 Z" fill="#00b8ff"/>
      <line x1="0" y1="-16" x2="0" y2="16" stroke="#00ff9d" stroke-width="2" stroke-dasharray="2,2"/>
    </g>
    <text x="300" y="370" text-anchor="middle" font-family="monospace" font-size="16" fill="#00ff9d">Gateway Restart</text>
    
    <!-- Button 2 -->
    <g transform="translate(600, 300)">
      <circle cx="0" cy="0" r="40" fill="#0a0a0f" stroke="#00b8ff" stroke-width="3"/>
      <g transform="translate(0, 0)">
        <rect x="-12" y="-18" width="24" height="8" fill="none" stroke="#00b8ff" stroke-width="2" rx="1"/>
        <rect x="-10" y="-8" width="20" height="8" fill="none" stroke="#ff00ff" stroke-width="2" rx="1"/>
        <rect x="-8" y="2" width="16" height="8" fill="none" stroke="#00ff9d" stroke-width="2" rx="1"/>
      </g>
      <path d="M20,0 L16,-4 L16,4 Z" fill="#ff00ff"/>
      <line x1="16" y1="0" x2="8" y2="0" stroke="#ff00ff" stroke-width="2"/>
    </g>
    <text x="600" y="370" text-anchor="middle" font-family="monospace" font-size="16" fill="#00b8ff">Save Context</text>
    
    <!-- Plus symbol -->
    <g transform="translate(900, 300)">
      <circle cx="0" cy="0" r="40" fill="#0a0a0f" stroke="#9d00ff" stroke-width="3"/>
      <line x1="-15" y1="0" x2="15" y2="0" stroke="#9d00ff" stroke-width="4"/>
      <line x1="0" y1="-15" x2="0" y2="15" stroke="#9d00ff" stroke-width="4"/>
    </g>
    <text x="900" y="370" text-anchor="middle" font-family="monospace" font-size="16" fill="#9d00ff">Add More</text>
  </g>
  
  <!-- Bottom accent -->
  <rect x="0" y="390" width="1200" height="10" fill="url(#titleGradient)"/>
</svg>