<svg xmlns="http://www.w3.org/2000/svg" viewBox="0 0 100 100">
  <!-- Transparent background with subtle shadow -->
  <rect x="10" y="10" width="80" height="80" rx="15" fill="none" stroke="#2d3748" stroke-width="2" opacity="0.8"/>
  <rect x="15" y="15" width="70" height="70" rx="10" fill="#2d3748" opacity="0.9"/>
  
  <!-- Chat bubble -->
  <path d="M30 30 L70 30 L70 60 L55 60 L50 65 L45 60 L30 60 Z" fill="#4299e1"/>
  <rect x="35" y="35" width="30" height="20" rx="2" fill="#2d3748"/>
  
  <!-- Message lines -->
  <rect x="40" y="40" width="20" height="3" rx="1" fill="#48bb78"/>
  <rect x="35" y="46" width="30" height="3" rx="1" fill="#f6ad55"/>
  <rect x="40" y="52" width="20" height="3" rx="1" fill="#48bb78"/>
  
  <!-- Web icon -->
  <circle cx="50" cy="75" r="8" fill="none" stroke="#f6ad55" stroke-width="2"/>
  <path d="M42 75 A8 8 0 1 1 58 75" fill="none" stroke="#48bb78" stroke-width="2"/>
  <path d="M50 67 L50 83" stroke="#4299e1" stroke-width="2"/>
</svg>
